<svg xmlns="http://www.w3.org/2000/svg" xml:space="preserve" style="fill-rule:evenodd;clip-rule:evenodd;stroke-linejoin:round;stroke-miterlimit:2" viewBox="0 0 8 8"><path d="M0 0h8v8H0z" style="fill:none"/><clipPath id="a"><path d="M0 0h8v8H0z"/></clipPath><g clip-path="url(#a)"><path d="M1.674 6.741a2.45 2.45 0 0 1-.987-.586C.207 5.69 0 4.974-.001 4.149c0-.628.098-1.132.358-1.571.285-.482.811-.792 1.436-.933q.126-.028.259-.052l-.058-.271C1.544 1.354.965 1.121.707.837.658.783.629.707.68.649.722.603.809.639.822.645c.42.215.946.225 1.236.159l.014-.003c.29-.068.762-.308 1.055-.688.009-.012.073-.083.13-.059.07.029.075.111.053.182-.117.37-.547.836-.968 1.005l.064.3c.399-.045.889-.065 1.585-.066h.014c1.091 0 1.676.05 2.2.168.625.141 1.151.451 1.436.933.26.439.358.943.358 1.571 0 .824-.207 1.54-.688 2.006-.271.262-.572.45-.986.586l-.197.681a.18.18 0 0 1-.138.126.17.17 0 0 1-.17-.074c-.08-.119-.216-.326-.362-.548-.483.058-1.02.07-1.444.072h-.035a13 13 0 0 1-1.44-.072c-.145.222-.282.429-.362.548a.17.17 0 0 1-.17.074.18.18 0 0 1-.138-.126l-.197-.681Z" style="fill:#2f3744"/><path d="M4 6.5c.523-.001 1.237-.018 1.767-.131.532-.114.874-.287 1.171-.566.402-.378.562-.964.562-1.634 0-.516-.077-.932-.297-1.293-.233-.382-.67-.618-1.181-.73-.48-.105-1.018-.147-2.022-.147s-1.541.042-2.022.147c-.511.112-.948.347-1.181.73C.577 3.237.5 3.653.5 4.169c0 .67.16 1.256.562 1.634.296.278.639.451 1.171.566.53.114 1.244.13 1.767.131" style="fill:#d8dce5"/><clipPath id="b"><path d="M4 6.967c-.572-.001-1.354-.021-1.934-.145-.627-.134-1.028-.341-1.378-.667C.208 5.707.001 5.018 0 4.224c0-.605.098-1.09.358-1.513.285-.464.811-.763 1.436-.899.524-.114 1.11-.161 2.206-.161s1.682.048 2.206.161c.625.136 1.151.435 1.436.899.26.422.358.908.358 1.513 0 .794-.207 1.483-.688 1.931-.349.326-.75.533-1.378.667-.58.124-1.362.143-1.934.145h-.001Z"/></clipPath><g clip-path="url(#b)"><path d="M.505 4.595a.8.8 0 1 1 0 1.6.8.8 0 0 1 0-1.6m6.99 0a.8.8 0 1 1 0 1.6.8.8 0 0 1 0-1.6" style="fill:#ff5b00"/></g><path d="M5.65 3.827a.375.375 0 0 1 .75 0v.5a.375.375 0 0 1-.75 0zm-4.025.048a.375.375 0 0 1 .75 0v.5a.375.375 0 0 1-.75 0zM4 5.5c-.661 0-.95-.392-.978-.457-.033-.077-.039-.203.049-.262s.197-.03.268.048c.111.12.217.295.66.295s.55-.175.66-.295c.071-.077.181-.107.268-.048s.082.184.049.262c-.028.065-.316.457-.978.457Z" style="fill:#2f3744"/></g></svg>