<?xml version="1.0" encoding="UTF-8" standalone="no"?>
<!DOCTYPE svg PUBLIC "-//W3C//DTD SVG 1.1//EN" "http://www.w3.org/Graphics/SVG/1.1/DTD/svg11.dtd">
<svg width="100%" height="100%" viewBox="0 0 512 512" version="1.1" xmlns="http://www.w3.org/2000/svg" xmlns:xlink="http://www.w3.org/1999/xlink" xml:space="preserve" xmlns:serif="http://www.serif.com/" style="fill-rule:evenodd;clip-rule:evenodd;stroke-linejoin:round;stroke-miterlimit:2;">
    <g id="FC-Light" serif:id="FC Light" transform="matrix(0.866987,0,0,0.866987,-3962.79808,0)">
        <rect x="4570.772" y="0" width="590.551" height="590.551" style="fill:none;"/>
        <clipPath id="_clip1">
            <rect x="4570.772" y="0" width="590.551" height="590.551"/>
        </clipPath>
        <g clip-path="url(#_clip1)">
            <g id="Sondrine" transform="matrix(1.012271,0,0,1.012271,4360.21167,-311.072215)">
                <g id="Body" transform="matrix(3.208213,0,0,-2.903411,-610.828003,1604.177165)">
                    <path d="M293.3,275.109C283.887,278.4 277.026,282.949 270.871,289.293C259.957,300.542 255.244,317.859 255.24,337.797C255.237,352.985 257.47,365.18 263.373,375.789C269.859,387.445 281.81,394.955 296.017,398.36C296.04,398.366 296.063,398.371 296.086,398.377L294.508,406.581C281.096,405.389 267.091,412.823 260.401,420.765C257.611,424.078 261.021,428.502 264.852,426.089C272.197,421.464 283.936,418.269 296.069,421.119C308.202,423.969 317.733,432.159 322.741,439.685C325.352,443.611 330.096,441.102 328.766,436.822C325.581,426.569 315.523,413.493 302.845,408.544L304.478,400.055C314.587,401.696 326.917,402.408 346.161,402.412L346.163,402.412C371.065,402.407 384.391,401.217 396.307,398.36C410.514,394.955 422.465,387.445 428.951,375.789C434.854,365.18 437.087,352.985 437.084,337.797C437.08,317.859 432.367,300.542 421.453,289.293C415.302,282.954 408.447,278.406 399.044,275.116L394.57,258.636C394.136,257.038 392.913,255.854 391.422,255.589C389.931,255.324 388.434,256.024 387.568,257.391C385.746,260.267 382.647,265.278 379.344,270.651C368.223,269.222 355.872,268.941 346.17,268.916L346.154,268.916C336.457,268.941 324.114,269.222 312.997,270.649C309.694,265.277 306.596,260.267 304.774,257.391C303.908,256.024 302.411,255.324 300.92,255.589C299.429,255.854 298.207,257.038 297.773,258.636L293.3,275.109Z" style="fill:rgb(47,55,68);"/>
                </g>
                <g transform="matrix(-8.924472,0,0,8.924472,829.817391,320.056879)">
                    <path d="M36.986,54.066C32.452,54.056 26.259,53.915 21.665,52.936C17.05,51.951 14.083,50.462 11.513,48.064C8.024,44.81 6.637,39.759 6.636,33.991C6.635,29.544 7.304,25.961 9.214,22.854C11.238,19.563 15.022,17.532 19.455,16.57C23.621,15.666 28.281,15.306 36.986,15.305C45.692,15.306 50.352,15.666 54.518,16.57C58.951,17.532 62.735,19.563 64.759,22.854C66.669,25.961 67.338,29.544 67.337,33.991C67.336,39.759 65.949,44.81 62.46,48.064C59.89,50.462 56.923,51.951 52.307,52.936C47.714,53.915 41.52,54.056 36.986,54.066Z" style="fill:rgb(216,220,229);"/>
                </g>
                <g id="Cheeks" transform="matrix(3.17024,0,0,3.17024,-546.400239,18.441432)">
                    <clipPath id="_clip2">
                        <path d="M329.978,253.912C316.812,253.881 298.825,253.43 285.485,250.585C271.055,247.507 261.83,242.746 253.793,235.25C242.748,224.948 237.979,209.088 237.975,190.828C237.972,176.919 240.231,165.75 246.205,156.035C252.769,145.359 264.863,138.482 279.24,135.363C291.299,132.747 304.784,131.657 329.985,131.652L329.986,131.652C355.187,131.657 368.672,132.747 380.731,135.363C395.108,138.482 407.202,145.359 413.766,156.035C419.74,165.75 421.999,176.919 421.996,190.828C421.993,209.088 417.223,224.948 406.178,235.25C398.141,242.746 388.916,247.507 374.486,250.585C361.146,253.43 343.159,253.881 329.993,253.912L329.978,253.912Z"/>
                    </clipPath>
                    <g clip-path="url(#_clip2)">
                        <path d="M249.6,199.339C259.755,199.339 268,207.583 268,217.739C268,227.894 259.755,236.139 249.6,236.139C239.444,236.139 231.199,227.894 231.199,217.739C231.199,207.583 239.444,199.339 249.6,199.339ZM410.39,199.339C420.545,199.339 428.79,207.583 428.79,217.739C428.79,227.894 420.545,236.139 410.39,236.139C400.235,236.139 391.99,227.894 391.99,217.739C391.99,207.583 400.235,199.339 410.39,199.339Z" style="fill:rgb(255,79,27);"/>
                    </g>
                </g>
                <g id="Face" transform="matrix(-3.869073,0,0,3.726576,1747.003389,-31.356123)">
                    <path d="M290.593,167.289C290.593,163.586 287.697,160.58 284.131,160.58C280.565,160.58 277.67,163.586 277.67,167.289L277.67,176.234C277.67,179.936 280.565,182.942 284.131,182.942C287.697,182.942 290.593,179.936 290.593,176.234L290.593,167.289ZM367.054,167.289C367.054,163.586 364.158,160.58 360.592,160.58C357.026,160.58 354.131,163.586 354.131,167.289L354.131,176.234C354.131,179.936 357.026,182.942 360.592,182.942C364.158,182.942 367.054,179.936 367.054,176.234L367.054,167.289ZM322.362,199.872C333.436,199.872 338.269,192.871 338.738,191.719C339.299,190.341 339.386,188.105 337.92,187.051C336.454,185.998 334.622,186.524 333.425,187.9C331.568,190.037 329.782,193.164 322.362,193.164C314.941,193.164 313.156,190.037 311.298,187.9C310.101,186.524 308.269,185.998 306.803,187.051C305.337,188.105 305.425,190.341 305.985,191.719C306.454,192.871 311.287,199.872 322.362,199.872Z" style="fill:rgb(47,55,68);"/>
                </g>
            </g>
        </g>
    </g>
</svg>
